<svg version="1.1" id="Layer_1" xmlns="http://www.w3.org/2000/svg" xmlns:xlink="http://www.w3.org/1999/xlink" x="0px" y="0px"
	 width="100%" viewBox="0 0 256 256" enable-background="new 0 0 256 256" xml:space="preserve">
<path fill="white" opacity="1.000000" stroke="none" 
	d="
M257.000000,65.531342 
	C254.217102,79.693825 250.394058,93.064583 244.129883,105.610222 
	C242.413315,109.048065 243.086761,112.492859 243.476776,115.854866 
	C246.195465,139.289932 241.824768,161.350525 231.380432,182.401215 
	C229.357361,186.478745 226.206650,187.410065 222.836090,185.887756 
	C219.380463,184.327057 218.830994,180.747635 220.513184,177.322021 
	C225.592590,166.978271 229.149338,156.215225 231.122238,144.807480 
	C234.632919,124.507942 231.490906,105.239830 223.302399,86.585991 
	C222.634705,85.064980 221.878845,83.573120 221.046555,82.135689 
	C218.437714,77.630058 217.266739,70.559631 211.991226,69.825012 
	C203.157852,68.594933 193.665283,67.697571 185.695633,74.159630 
	C181.817459,77.304192 179.803970,81.292549 179.397552,86.089935 
	C178.599579,95.509323 174.156326,100.332024 165.004395,101.387421 
	C159.601196,102.010513 155.973053,105.969971 155.439621,111.825630 
	C155.051697,116.084068 158.538589,121.225960 162.870773,122.555122 
	C165.573410,123.384331 168.351318,123.711273 171.220428,123.685349 
	C181.717743,123.590454 192.216904,123.708015 202.714432,123.625076 
	C206.576981,123.594559 209.325485,124.590744 209.298203,129.081528 
	C209.270370,133.664703 206.305771,134.387054 202.555954,134.371155 
	C190.058365,134.318161 177.548370,134.022583 165.065536,134.459885 
	C149.246826,135.014023 141.893723,120.277527 144.012115,108.163948 
	C145.986633,96.872955 151.592239,91.723770 163.151398,89.626953 
	C165.765045,89.152840 167.430298,87.970230 167.625214,85.157990 
	C168.373642,74.360275 173.621231,66.345131 183.009323,61.182575 
	C188.650101,58.080681 195.106979,58.092079 201.740021,57.355423 
	C200.793518,53.950958 198.194824,51.981434 195.901688,50.121006 
	C183.512421,40.069622 169.839432,32.409904 154.164780,28.707523 
	C152.520264,28.319086 150.855881,28.024189 149.282669,28.833759 
	C138.350342,34.459553 127.560547,40.286926 118.338089,48.622620 
	C115.545250,51.146919 115.154808,53.352718 116.912666,56.822384 
	C123.455566,69.736755 129.713974,82.797195 135.947220,95.865746 
	C139.365829,103.033180 139.123093,103.840446 133.654419,109.365379 
	C131.661758,111.378555 129.670792,113.394691 127.631912,115.360588 
	C122.946877,119.877945 119.612480,119.506302 115.730522,114.396729 
	C107.201469,103.170479 98.562798,92.027496 89.960670,80.856842 
	C89.574593,80.355492 89.107841,79.916275 88.097816,78.814522 
	C80.726532,86.318657 73.496712,93.614136 66.360092,100.999680 
	C64.967239,102.441116 65.142044,104.431740 65.682175,106.228378 
	C67.037743,110.737434 65.863464,115.487167 67.135689,120.048523 
	C67.515877,121.411636 66.834404,123.582916 65.863152,124.722267 
	C61.656956,129.656509 57.282101,134.530533 52.011845,138.323730 
	C48.996738,140.493820 45.870369,139.440872 44.074799,136.077499 
	C42.919994,133.914368 42.191734,131.523514 41.012241,128.587372 
	C35.969837,135.799942 30.743891,142.629135 28.722546,150.767303 
	C27.367626,156.222366 30.514984,161.855484 32.746189,166.957077 
	C48.340366,202.612732 75.238876,224.321014 113.607719,231.478928 
	C120.476944,232.760406 127.472847,232.841232 134.467850,232.692429 
	C137.412903,232.629776 138.828934,231.558121 138.652191,228.549194 
	C138.574173,227.220932 138.655670,225.883789 138.648987,224.550751 
	C138.599014,214.593262 135.412628,211.523575 125.582108,211.329895 
	C117.457535,211.169815 109.306732,212.105591 101.206940,210.379562 
	C92.494499,208.522995 85.360359,201.507095 84.814713,192.709869 
	C84.492744,187.518906 82.181000,186.075455 77.543434,186.338684 
	C73.728210,186.555252 69.914124,186.445831 66.184761,185.275452 
	C56.419300,182.210693 48.665508,172.394394 49.610371,159.783340 
	C50.324917,150.246323 58.550762,140.329102 67.958542,138.755814 
	C70.342239,138.357178 71.157791,137.420746 71.975845,135.271927 
	C75.073349,127.135582 80.440735,123.660080 89.176704,123.650864 
	C99.008347,123.640488 108.840050,123.627037 118.671631,123.652573 
	C131.639160,123.686249 141.294891,133.362915 141.345139,146.355530 
	C141.367706,152.187775 141.531738,158.027603 141.292145,163.850037 
	C141.115692,168.137802 142.659470,169.682617 147.052002,169.747009 
	C158.488205,169.914642 167.156601,176.265579 168.894012,186.369476 
	C169.896210,192.197662 169.401443,198.329025 169.158096,204.306747 
	C169.032150,207.400726 166.357178,208.966736 163.597916,209.074371 
	C160.338867,209.201477 158.346176,206.820343 157.906158,203.807281 
	C157.452621,200.701660 157.417297,197.466309 157.705536,194.334335 
	C158.459747,186.138748 153.706497,181.154312 145.522079,181.562927 
	C134.873215,182.094604 129.111496,175.009583 129.615860,164.612869 
	C129.825562,160.290466 129.321655,155.919617 129.711395,151.622406 
	C130.855759,139.004471 123.941078,135.100571 113.574318,134.487030 
	C106.433823,134.064453 99.242867,134.226532 92.085167,134.458237 
	C87.425201,134.609070 83.886337,136.403610 82.947815,141.796661 
	C82.177933,146.220657 79.580276,149.305237 74.562340,149.500580 
	C73.598648,149.538101 72.661514,150.068146 71.697281,150.312317 
	C64.876366,152.039734 60.774132,157.284760 61.386349,163.519211 
	C61.899212,168.741837 67.957420,174.188889 73.862167,174.601456 
	C76.184464,174.763718 78.526634,174.621887 80.858925,174.664322 
	C89.885948,174.828506 95.109818,179.454865 96.322212,188.333481 
	C97.369080,195.999878 101.077240,199.447830 108.851059,199.609039 
	C115.846924,199.754120 122.848175,199.619034 129.846771,199.658371 
	C141.442093,199.723541 150.228973,208.498642 150.324677,220.194901 
	C150.410797,230.718369 148.693375,231.149078 160.627945,227.459717 
	C169.226196,224.801712 177.263031,220.768066 184.915176,215.998596 
	C186.306107,215.131653 187.777359,214.053284 189.317841,213.839874 
	C192.225235,213.437119 195.493408,212.903168 196.817551,216.810883 
	C197.949310,220.150879 196.752930,222.596741 193.941986,224.489441 
	C185.211594,230.367935 175.892029,235.068176 165.885147,238.327744 
	C149.429855,243.687820 132.618301,246.189575 115.395897,243.312210 
	C109.315765,242.296387 104.301552,244.671158 99.250862,246.954742 
	C90.426773,250.944412 81.258301,253.637497 71.804825,255.524780 
	C71.015953,255.682266 70.296883,256.189423 69.272690,256.767059 
	C58.645771,257.000000 48.291546,257.000000 37.232002,256.740295 
	C36.113438,256.203064 35.734985,255.773911 35.281895,255.669907 
	C19.174946,251.972290 8.847405,241.951309 3.267751,226.628998 
	C2.793943,225.327850 2.808611,223.539963 1.000000,223.000000 
	C1.000000,211.645767 1.000000,200.291550 1.248868,188.213623 
	C5.015049,176.668488 7.165250,165.347610 12.524362,155.202927 
	C14.938370,150.633270 15.389059,146.085815 14.331388,141.316360 
	C13.817758,139.000198 13.757380,136.729980 13.640185,134.415482 
	C13.051294,122.785301 14.873954,111.363113 16.974293,99.741173 
	C11.425368,98.094254 6.212684,96.547127 1.000000,95.000000 
	C1.000000,92.299988 1.000000,89.599968 1.296993,86.299942 
	C4.481732,83.942245 6.953835,81.594383 8.883231,78.944611 
	C13.151044,73.083336 18.855911,71.740349 25.537161,72.694244 
	C26.847279,72.881287 28.135193,73.219574 29.442753,73.429535 
	C33.923260,74.149025 37.766949,73.590820 41.129230,69.819321 
	C45.887463,64.481979 51.225750,59.663681 56.272594,54.580334 
	C57.521835,53.322067 59.178532,52.273464 59.234093,49.926510 
	C47.773247,41.087704 36.243759,32.163948 24.673918,23.292826 
	C21.255196,20.671537 19.012350,17.259562 21.947060,13.549771 
	C26.203552,8.169104 30.360558,2.231178 38.000000,1.000000 
	C38.444447,1.000000 38.888889,1.000000 39.812443,1.299756 
	C40.644894,1.940354 40.939766,2.403735 41.360054,2.604291 
	C55.537415,9.369622 69.741814,16.078537 83.898849,22.885965 
	C86.161148,23.973791 87.573647,23.120987 89.143707,21.624739 
	C93.566338,17.410049 97.896721,13.119466 102.556610,9.123313 
	C106.692215,5.576774 112.141235,4.683985 116.000000,1.000000 
	C122.687645,1.000000 129.375290,1.000000 136.690277,1.355783 
	C140.586929,7.430486 139.257248,13.541090 138.486633,19.408285 
	C139.705399,19.994211 140.436203,19.580341 141.165085,19.187628 
	C154.350204,12.083753 168.153381,6.598464 182.725128,3.032967 
	C184.502777,2.598004 186.940063,3.431638 188.000000,1.000000 
	C199.354233,1.000000 210.708450,1.000000 222.730209,1.276637 
	C224.867737,2.269279 226.288208,3.120546 227.815628,3.679721 
	C239.242096,7.862884 247.904617,15.043790 252.699478,26.450781 
	C254.170868,29.951260 255.568558,33.482723 257.000000,37.000000 
	C257.000000,46.354229 257.000000,55.708454 257.000000,65.531342 
M36.900932,17.173185 
	C48.339249,25.979101 59.738396,34.836582 71.233215,43.568115 
	C76.588760,47.636219 77.015785,51.038219 72.275307,55.809669 
	C63.700680,64.440308 55.002235,72.949203 46.505981,81.655785 
	C43.387905,84.851044 40.268749,86.565552 35.530304,85.551643 
	C32.193329,84.837624 28.631514,85.097183 25.171574,84.480247 
	C22.906298,84.076332 20.067463,83.745392 18.908033,87.539856 
	C21.529701,88.255089 24.013159,89.011719 26.534567,89.607826 
	C44.593719,93.877335 44.533676,93.884102 49.444981,111.787186 
	C50.225750,114.633316 49.959057,118.029030 53.062698,120.698486 
	C55.711781,116.519913 54.587307,112.445038 54.190323,108.492249 
	C53.712803,103.737541 51.958538,98.487419 55.587109,94.606804 
	C64.573570,84.996101 73.900497,75.689278 83.380493,66.561424 
	C87.344482,62.744686 91.820793,63.079021 94.732246,66.683990 
	C97.439011,70.035515 99.889809,73.592361 102.515152,77.011322 
	C109.048958,85.520203 115.617996,94.002007 122.185745,102.511337 
	C125.644821,100.704430 123.847603,98.753365 122.960564,96.934883 
	C116.691574,84.083000 110.380615,71.251549 104.128372,58.391544 
	C100.697922,51.335567 101.154327,48.623302 106.475777,43.309738 
	C111.074608,38.717712 115.770958,34.219276 120.260117,29.522631 
	C124.674690,24.904028 126.473824,19.176476 127.007545,12.435802 
	C120.898979,12.418633 115.976845,14.475505 111.431221,17.645666 
	C105.372238,21.871252 100.698669,27.587729 95.447502,32.678665 
	C89.808708,38.145393 87.965736,38.412010 80.978088,35.030842 
	C67.673248,28.592913 54.308155,22.279190 40.947189,15.958057 
	C39.482700,15.265203 37.654598,13.436131 36.900932,17.173185 
M78.027161,232.562042 
	C50.835655,219.052216 32.175133,197.659805 20.456024,168.783859 
	C13.619834,183.927399 11.067489,198.670212 12.532602,213.852707 
	C14.105950,230.156815 24.077280,240.962357 40.030136,244.566925 
	C49.546566,246.717148 59.185902,246.233994 68.660477,244.036270 
	C75.357224,242.482895 82.249657,241.423569 89.127563,237.731033 
	C85.220314,235.931107 81.954887,234.426834 78.027161,232.562042 
M213.862503,50.651268 
	C224.071930,61.564796 231.504242,74.288315 237.147537,88.152443 
	C239.244232,86.882614 239.440796,85.542297 239.856659,84.284309 
	C243.895782,72.066139 246.580688,59.630795 245.634460,46.663818 
	C244.665543,33.386009 239.320541,22.605471 226.947815,16.514776 
	C214.889954,10.579080 202.083679,11.428555 189.433502,13.940900 
	C182.831345,15.252103 175.928940,16.234629 169.178528,20.649149 
	C186.607544,27.522713 201.300537,36.930149 213.862503,50.651268 
M32.517563,119.041321 
	C33.310020,117.779358 33.926853,116.352379 34.928200,115.286690 
	C37.814072,112.215401 36.187614,108.974083 35.233406,105.939461 
	C34.663868,104.128181 32.590611,103.558693 30.680969,103.494652 
	C29.584118,103.457863 28.744270,103.993744 28.489044,105.128441 
	C26.765903,112.789246 25.746082,120.528633 26.192120,128.570023 
	C28.171297,125.600700 30.150473,122.631378 32.517563,119.041321 
z"/>
<path fill="#fff" opacity="1.000000" stroke="none" 
	d="
M213.996582,196.661407 
	C217.531921,199.397064 217.511292,202.477341 215.268066,205.455078 
	C213.249466,208.134628 210.252380,208.052170 207.732697,206.409012 
	C205.122940,204.707077 204.414917,201.833954 205.771957,198.998184 
	C207.405762,195.584091 210.256149,194.973724 213.996582,196.661407 
z"/>
</svg>